PathFileType	3	(X/Y/Z)	D:\minhoCalibration\240510\subject5_KPNP\preferred\preferred14.trc
DataRate	CameraRate	NumFrames	NumMarkers	Units	OrigDataRate	OrigDataStartFrame	OrigNumFrames
200.0	200.0	28	10	mm	200.0	213	128	
Frame#	Time	Left_Ankle_Outer1			Left_Ankle_Inner1			Left_Knee_Outer1			Left_Knee_Inner1			Left_Wrist1			Right_Wrist1			Right_Knee_Inner1			Right_Knee_Outer1			Right_Ankle_Inner1			Right_Ankle_Outer1			
		X1	Y1	Z1	X2	Y2	Z2	X3	Y3	Z3	X4	Y4	Z4	X5	Y5	Z5	X6	Y6	Z6	X7	Y7	Z7	X8	Y8	Z8	X9	Y9	Z9	X10	Y10	Z10	
213	1.055	202.7296	73.149529	-518.89844	153.12646	85.024063	-530.40619	261.62863	525.96301	-372.28137	171.89526	516.33551	-399.63528	392.27975	989.35425	-508.39996	120.57571	1060.4972	-690.51373	-102.63902	562.46606	-588.40521	-147.12184	624.69128	-643.40863	168.62183	328.69684	-877.68292	142.54471	401.31992	-936.73181
214	1.06	202.97327	73.331642	-518.8916	152.9283	85.578041	-529.62665	263.9295	525.80481	-372.53278	174.00398	515.94696	-398.7746	393.64471	989.76984	-508.05264	118.49975	1064.3116	-682.83356	-112.14719	571.91803	-571.54089	-156.95163	634.67255	-626.14386	153.9137	338.09308	-866.41058	127.20674	411.55075	-924.03107
215	1.065	202.98036	73.299179	-518.77771	152.9581	86.69883	-529.25958	266.27112	525.66223	-372.90201	175.80789	515.70911	-397.81042	395.2236	990.21967	-507.64276	116.60119	1067.8875	-675.22198	-121.08036	581.97876	-553.90527	-166.55663	644.96216	-607.97772	138.92976	347.94168	-855.16461	111.86485	422.29373	-911.4837
216	1.07	203.3342	73.458023	-518.6933	154.89406	86.379768	-530.04419	268.72815	525.57507	-373.35303	178.269	515.67316	-398.0549	396.62521	990.62152	-507.47699	114.78738	1071.3026	-667.80786	-129.87575	591.68463	-535.9762	-175.3123	656.17987	-589.93561	123.85403	358.41406	-843.98364	96.308304	433.38306	-898.91754
217	1.075	203.24608	73.25489	-518.53949	154.38121	86.83754	-528.9939	271.09116	525.45135	-373.89819	180.68358	515.59216	-397.48465	398.069	990.96161	-507.57535	113.16763	1075.184	-660.54987	-137.55617	601.93225	-519.12616	-183.31374	667.40247	-573.28619	108.8748	369.18585	-832.86029	80.747833	444.91061	-886.53479
218	1.08	204.36961	73.55899	-518.50427	155.9321	86.589455	-529.21259	273.47784	525.42743	-374.62552	182.25905	515.9267	-396.33383	399.34827	991.25494	-507.95435	111.11697	1079.2831	-652.53198	-145.27701	612.61987	-501.841	-191.30916	678.92651	-555.04529	93.872116	380.31265	-821.64282	65.111794	456.76456	-874.08966
219	1.085	204.65045	73.468269	-518.37726	156.08192	87.024414	-528.93927	275.8721	525.41406	-375.32599	184.36699	515.83911	-395.61014	400.67361	991.45538	-508.69669	109.6228	1083.0048	-645.65985	-152.76395	623.58447	-484.42883	-198.77443	690.47394	-537.24695	78.344482	391.47955	-810.36444	49.491287	468.98569	-861.62067
220	1.09	205.24631	73.903786	-518.46643	156.50101	87.379211	-528.67505	278.30487	525.36792	-375.99118	186.38521	516.04181	-394.758	401.77203	991.52179	-509.68802	107.65858	1086.5927	-638.86792	-159.86009	634.47955	-466.52759	-206.16167	702.53949	-517.85126	63.153149	403.22891	-799.20221	33.959023	481.54166	-849.17371
221	1.095	205.52132	74.20974	-518.54541	157.22447	88.008659	-529.02271	280.72531	525.38989	-376.67694	188.49448	516.12854	-393.89789	402.83215	991.49036	-511.01511	106.02665	1090.3279	-630.84534	-166.58621	645.84192	-448.92288	-211.92026	714.5365	-498.64584	48.032085	415.03662	-788.04553	18.367109	494.36636	-836.56848
222	1.1	205.42532	74.547852	-518.55914	157.00842	88.273781	-528.35211	283.14111	525.37695	-377.49231	190.29211	516.26025	-392.52368	403.67844	991.29504	-512.6438	104.89155	1093.0583	-619.33704	-172.57936	657.11841	-431.58432	-217.60667	727.14496	-479.62524	32.429005	427.46945	-776.72705	3.1829214	507.71143	-824.17487
223	1.105	205.59122	74.747162	-518.6438	156.55817	88.80584	-527.70282	285.39383	525.28009	-378.36237	192.09509	516.4751	-391.00504	404.43939	990.9884	-514.60809	104.0152	1096.9419	-611.85413	-178.37044	668.78101	-413.75159	-222.63652	739.97009	-460.61111	17.582111	440.25372	-765.66089	-12.071582	521.31982	-811.66174
224	1.11	205.14912	74.907776	-518.66418	156.11563	89.22242	-527.2345	287.72015	525.29321	-379.32742	193.91687	516.42175	-390.40894	404.98077	990.49255	-516.8092	102.29343	1102.4268	-606.99951	-183.49211	680.59808	-396.01593	-226.55113	752.85901	-442.09976	2.6513748	453.33194	-754.52319	-27.268251	535.25305	-799.12402
225	1.115	203.98819	75.370399	-518.7981	155.06303	89.809479	-526.62659	289.78275	525.26276	-380.2276	195.3398	516.99078	-388.56009	405.32599	989.91107	-519.35425	101.24227	1106.0927	-597.68066	-187.24794	692.09601	-378.86389	-230.06512	765.80719	-423.10721	-12.344249	466.84473	-743.49164	-42.487453	549.5351	-786.64014
226	1.12	203.05322	75.705414	-518.99707	153.79625	91.669441	-528.08875	291.67999	525.25458	-381.16913	197.63428	517.85742	-386.53268	405.45013	989.18347	-522.17566	100.79737	1111.2578	-589.15405	-189.26239	703.70953	-360.72223	-232.8017	778.83765	-404.1008	-27.313856	480.7114	-732.57562	-57.606472	564.21698	-774.21625
227	1.125	202.00482	76.046585	-519.29761	153.42596	90.952431	-526.48358	293.53214	525.19983	-382.17337	198.71854	517.74402	-385.52289	405.41617	988.43042	-525.15918	106.59007	1114.3625	-594.53888	-191.14149	715.55023	-342.47488	-235.02115	792.04431	-384.30722	-42.417896	494.77338	-721.66443	-72.636444	579.25134	-761.76276
228	1.13	200.66719	76.366859	-519.66779	151.67392	91.605141	-526.17072	295.18222	525.20959	-383.03046	200.57271	517.96198	-384.00204	404.77866	987.31812	-528.46143	99.256523	1119.2687	-571.62646	-192.97632	727.44061	-324.70767	-236.11554	805.20068	-365.13309	-57.516323	509.2764	-711.01825	-87.49913	594.65216	-749.29663
229	1.135	199.08032	76.798065	-520.03674	149.84079	92.54808	-525.54987	296.70453	525.19629	-383.82825	202.13782	517.91168	-382.38818	403.99368	986.20898	-531.9613	98.92498	1122.7086	-563.82855	-194.31754	739.26666	-308.13696	-236.18121	818.36707	-346.16241	-72.542793	523.92792	-700.08942	-102.67033	610.06378	-736.37402
230	1.14	197.36176	77.177544	-520.44989	148.23634	93.158157	-525.26733	297.94821	525.11853	-384.6405	203.55164	517.90631	-380.81781	402.90732	985.07831	-535.56769	99.894547	1127.4944	-550.58789	-194.62105	750.758	-290.79608	-235.6412	831.48151	-326.85858	-88.004135	538.74048	-689.06226	-117.46111	626.03607	-723.36163
231	1.145	195.54007	77.617203	-520.83649	146.39455	93.655846	-524.68866	299.34528	525.11395	-385.01587	204.85867	517.84082	-378.79443	401.46497	983.81866	-539.30652	100.43054	1131.244	-542.51923	-193.23003	762.21838	-273.27225	-233.9045	844.21118	-308.59985	-103.5787	553.75128	-677.96027	-132.32664	642.00372	-710.30554
232	1.15	193.56702	78.090981	-521.15668	144.39099	94.381325	-524.02124	300.5549	525.04285	-385.36691	206.32231	517.68823	-376.79993	399.86874	982.51306	-543.25232	101.11142	1135.1891	-534.69147	-192.6349	773.53772	-256.33258	-231.78975	857.31628	-289.51392	-119.69284	568.85016	-666.55334	-147.13777	658.25867	-696.77893
233	1.155	191.40469	78.609871	-521.42352	142.30969	95.144081	-523.2724	301.80649	524.95331	-385.66281	207.84586	517.44513	-374.54407	397.7562	981.0141	-547.27661	102.4099	1138.7747	-527.74164	-190.92357	784.85052	-239.78499	-229.04451	869.87061	-271.17886	-135.83215	584.47046	-655.20764	-161.87813	674.75153	-683.1665
234	1.16	188.95842	78.934425	-521.35876	139.9791	96.174316	-522.72235	303.06171	524.80463	-386.01749	209.62665	517.23035	-372.33359	395.28397	979.43286	-551.33545	103.32359	1141.9564	-521.33228	-188.67294	795.9494	-224.06448	-224.655	882.12921	-252.97203	-152.52477	599.91559	-643.16364	-177.0807	691.13947	-668.83545
235	1.165	186.99889	79.611282	-521.604	137.98921	96.494255	-521.33209	304.22559	524.68335	-386.21558	211.41405	516.85553	-369.92194	392.09515	978.10309	-555.06757	105.23891	1145.6124	-513.19812	-185.93745	806.98065	-208.23047	-219.89066	894.57227	-235.04823	-169.53766	615.59644	-630.84131	-191.7746	708.10712	-655.13556
236	1.17	184.67607	79.979401	-521.52771	135.75642	97.237396	-520.38263	305.49792	524.57544	-386.52731	213.11006	516.67639	-367.43979	389.15872	976.25745	-559.15796	107.481	1148.6802	-506.41489	-182.58975	817.70337	-192.69424	-214.60309	906.90601	-217.43556	-186.24207	631.49414	-618.46619	-207.31557	724.81348	-639.53528
237	1.175	182.69905	80.308121	-521.64655	133.71217	97.797287	-519.1535	306.75552	524.48523	-386.93665	214.98894	516.36218	-365.09006	385.83279	974.84406	-563.16095	109.7603	1151.6841	-499.87982	-178.52478	828.42511	-177.24562	-208.31155	918.73761	-200.58589	-204.0033	648.12164	-605.16418	-222.36113	742.2276	-624.64343
238	1.18	180.36101	80.567184	-521.3269	131.75183	98.141647	-517.72937	307.78189	524.37427	-387.47787	216.77281	516.17865	-362.77429	387.72287	974.89526	-559.7218	111.73905	1155.0568	-493.04269	-174.5007	838.80267	-162.85533	-201.44699	929.9718	-184.37714	-222.08374	664.52722	-590.9408	-237.99722	759.13281	-608.41937
239	1.185	178.33026	80.693039	-521.12421	130.02541	98.226067	-516.87848	308.73651	524.26477	-388.14969	218.50076	515.89288	-360.80719	379.00787	971.05554	-572.53748	114.20947	1158.2433	-486.39938	-169.82735	848.9931	-148.50075	-194.23152	941.37634	-168.31444	-239.96437	681.24493	-576.49731	-253.92429	776.49597	-591.80859
240	1.19	176.3497	80.834999	-521.07117	128.28508	98.627327	-515.84991	309.41434	524.11078	-388.89691	220.0529	515.55231	-359.05878	375.11838	969.30273	-576.45709	116.52992	1160.7412	-480.39056	-164.74094	859.09314	-134.60867	-186.1019	952.06415	-153.17322	-258.54147	697.97339	-560.7572	-269.6973	793.60577	-574.69653
